<svg id="Capa_1" enable-background="new 0 0 512 512" height="512" viewBox="0 0 512 512" width="512" xmlns="http://www.w3.org/2000/svg"><g><g><path d="m322.116 504.5h-132.232c-12.311 0-22.79-8.963-24.698-21.126l-36.686-233.874h255l-36.686 233.874c-1.908 12.163-12.387 21.126-24.698 21.126z" fill="#faf2f3"/><path d="m383.5 249.5-9.41 60h-30l9.41-60z" fill="#f0e5e0"/><path d="m374.09 309.5-27.28 173.87c-1.9 12.17-12.38 21.13-24.69 21.13h-132.24c-12.31 0-22.79-8.96-24.69-21.13l-27.28-173.87z" fill="#c3aff0"/><path d="m374.09 309.5-27.28 173.87c-1.9 12.17-12.38 21.13-24.69 21.13h-30c12.31 0 22.79-8.96 24.69-21.13l27.28-173.87z" fill="#ad96ed"/><path d="m388 219.5h-264c-8.284 0-15 6.716-15 15 0 8.284 6.716 15 15 15h264c8.284 0 15-6.716 15-15 0-8.284-6.716-15-15-15z" fill="#ffe07d"/><path d="m403 234.5c0 8.28-6.72 15-15 15h-30c8.28 0 15-6.72 15-15 0-4.14-1.68-7.89-4.4-10.6-2.71-2.72-6.46-4.4-10.6-4.4h30c4.14 0 7.89 1.68 10.6 4.4 2.72 2.71 4.4 6.46 4.4 10.6z" fill="#ffd064"/><path d="m273.5 109.5h-35c-60.751 0-110 49.249-110 110h255c0-60.751-49.249-110-110-110z" fill="#faf2f3"/><path d="m383.5 219.5h-30c0-30.38-12.31-57.88-32.22-77.78-19.9-19.91-47.4-32.22-77.78-32.22h30c30.38 0 57.88 12.31 77.78 32.22 19.91 19.9 32.22 47.4 32.22 77.78z" fill="#f0e5e0"/><path d="m271 219.5h-30v-207c0-2.761 2.239-5 5-5h20c2.761 0 5 2.239 5 5z" fill="#ffe07d"/><path d="m241 249.5h30v60h-30z" fill="#f0e5e0"/><path d="m271 309.5h-30v25c0 2.761 2.239 5 5 5h20c2.761 0 5-2.239 5-5z" fill="#ad96ed"/><g fill="#fff"><path d="m212.5 421.5c-8.284 0-15-6.716-15-15 0-8.284 6.716-15 15-15 8.284 0 15 6.716 15 15 0 8.284-6.716 15-15 15z"/><path d="m256 474.5c-8.284 0-15-6.716-15-15 0-8.284 6.716-15 15-15 8.284 0 15 6.716 15 15 0 8.284-6.716 15-15 15z"/><path d="m301.5 421.5c-8.284 0-15-6.716-15-15 0-8.284 6.716-15 15-15 8.284 0 15 6.716 15 15 0 8.284-6.716 15-15 15z"/></g><path d="m241 109.5h30v110h-30z" fill="#f0e5e0"/></g><g><path d="m410.5 234.5c0-11.469-8.628-20.955-19.733-22.324-1.789-29.143-14.196-56.276-35.223-76.789-20.872-20.363-48.069-32.066-77.044-33.276v-89.611c0-6.893-5.607-12.5-12.5-12.5h-20c-6.893 0-12.5 5.607-12.5 12.5v89.611c-29.087 1.214-56.36 12.992-77.263 33.489-20.908 20.502-33.225 47.54-35.005 76.576-11.105 1.369-19.732 10.855-19.732 22.324 0 11.756 9.065 21.429 20.571 22.412l35.706 227.625c2.497 15.913 16 27.463 32.107 27.463h82.81c4.142 0 7.5-3.358 7.5-7.5s-3.358-7.5-7.5-7.5h-82.81c-8.673 0-15.944-6.219-17.289-14.788l-25.915-165.212h86.82v17.5c0 6.893 5.607 12.5 12.5 12.5h20c6.893 0 12.5-5.607 12.5-12.5v-17.5h86.82l-25.915 165.211c-1.345 8.57-8.616 14.789-17.289 14.789h-14.421c-4.142 0-7.5 3.358-7.5 7.5s3.358 7.5 7.5 7.5h14.421c16.108 0 29.611-11.55 32.107-27.464l35.706-227.625c11.506-.982 20.571-10.655 20.571-22.411zm-34.772-22.5h-97.228v-94.881c52.066 2.445 93.532 42.89 97.228 94.881zm-127.228-95h15v95h-15zm15-102v87h-15v-87zm-126.232 242h96.232v45h-89.173zm111.232 45v-45h15v45zm15 30h-15v-15h15zm15-30v-45h96.232l-7.059 45zm109.5-60h-264c-4.136 0-7.5-3.364-7.5-7.5s3.364-7.5 7.5-7.5h32c4.142 0 7.5-3.358 7.5-7.5s-3.358-7.5-7.5-7.5h-19.725c3.756-51.2 45.895-92.351 97.225-94.875v94.875h-42.5c-4.142 0-7.5 3.358-7.5 7.5s3.358 7.5 7.5 7.5h197c4.136 0 7.5 3.364 7.5 7.5s-3.364 7.5-7.5 7.5z"/><path d="m235 406.5c0-12.407-10.093-22.5-22.5-22.5s-22.5 10.093-22.5 22.5 10.093 22.5 22.5 22.5 22.5-10.093 22.5-22.5zm-30 0c0-4.136 3.364-7.5 7.5-7.5s7.5 3.364 7.5 7.5-3.364 7.5-7.5 7.5-7.5-3.364-7.5-7.5z"/><path d="m256 482c12.407 0 22.5-10.093 22.5-22.5s-10.093-22.5-22.5-22.5-22.5 10.093-22.5 22.5 10.093 22.5 22.5 22.5zm0-30c4.136 0 7.5 3.364 7.5 7.5s-3.364 7.5-7.5 7.5-7.5-3.364-7.5-7.5 3.364-7.5 7.5-7.5z"/><path d="m200.5 349.5c0-5.514-4.486-10-10-10s-10 4.486-10 10 4.486 10 10 10 10-4.486 10-10z"/><path d="m309.5 470c5.514 0 10-4.486 10-10s-4.486-10-10-10-10 4.486-10 10 4.486 10 10 10z"/><path d="m192.5 460c0 5.514 4.486 10 10 10s10-4.486 10-10-4.486-10-10-10-10 4.486-10 10z"/><path d="m266 379.5c0-5.514-4.486-10-10-10s-10 4.486-10 10 4.486 10 10 10 10-4.486 10-10z"/><path d="m331.5 349.5c0-5.514-4.486-10-10-10s-10 4.486-10 10 4.486 10 10 10 10-4.486 10-10z"/><path d="m279 406.5c0 12.407 10.093 22.5 22.5 22.5s22.5-10.093 22.5-22.5-10.093-22.5-22.5-22.5-22.5 10.093-22.5 22.5zm30 0c0 4.136-3.364 7.5-7.5 7.5s-7.5-3.364-7.5-7.5 3.364-7.5 7.5-7.5 7.5 3.364 7.5 7.5z"/></g></g></svg>